<?xml version="1.0" encoding="UTF-8"?>
<svg width="92px" height="36px" viewBox="0 0 92 36" version="1.1" xmlns="http://www.w3.org/2000/svg" xmlns:xlink="http://www.w3.org/1999/xlink">
    <title>Barcode</title>
    <g id="Desktop" stroke="none" stroke-width="1" fill="none" fill-rule="evenodd">
        <g id="[Desktop]---01.-Home" transform="translate(-794.000000, -666.000000)" fill="#FFFFFF">
            <g id="B:-Hero-(Point-Zero)" transform="translate(0.000000, 266.000000)">
                <g id="Center-content" transform="translate(627.000000, 363.000000)">
                    <g id="Barcode" transform="translate(168.000000, 37.000000)">
                        <g id="Text" transform="translate(0.000000, 25.000000)" font-family="HelveticaNeue, Helvetica Neue" font-size="9" font-weight="normal" letter-spacing="0.1125">
                            <text id="120592">
                                <tspan x="12" y="9">120592</tspan>
                            </text>
                            <text id="A">
                                <tspan x="0" y="9">A</tspan>
                            </text>
                            <text id="g">
                                <tspan x="84" y="9">G</tspan>
                            </text>
                            <text id="111095">
                                <tspan x="48" y="9">111095</tspan>
                            </text>
                        </g>
                        <g id="Shape" transform="translate(7.000000, 0.000000)">
                            <rect id="Rectangle" x="0" y="0" width="1" height="27"></rect>
                            <rect id="Rectangle-Copy-2" x="2" y="0" width="1" height="27"></rect>
                            <rect id="Rectangle-Copy-3" x="6" y="0" width="1" height="25"></rect>
                            <rect id="Rectangle-Copy-4" x="8" y="0" width="1" height="25"></rect>
                            <rect id="Rectangle-Copy-5" x="10" y="0" width="3" height="25"></rect>
                            <rect id="Rectangle-Copy-8" x="14" y="0" width="1" height="25"></rect>
                            <rect id="Rectangle-Copy-7" x="16" y="0" width="1" height="25"></rect>
                            <rect id="Rectangle-Copy-9" x="24" y="0" width="1" height="25"></rect>
                            <rect id="Rectangle-Copy-10" x="26" y="0" width="1" height="25"></rect>
                            <rect id="Rectangle-Copy-11" x="28" y="0" width="1" height="25"></rect>
                            <rect id="Rectangle-Copy-13" x="35" y="0" width="1" height="25"></rect>
                            <rect id="Rectangle-Copy-16" x="43" y="0" width="1" height="25"></rect>
                            <rect id="Rectangle-Copy-18" x="48" y="0" width="1" height="25"></rect>
                            <rect id="Rectangle-Copy-19" x="50" y="0" width="1" height="25"></rect>
                            <rect id="Rectangle-Copy-20" x="54" y="0" width="2" height="25"></rect>
                            <rect id="Rectangle-Copy-17" x="45" y="0" width="2" height="25"></rect>
                            <rect id="Rectangle-Copy-14" x="37" y="0" width="1" height="27"></rect>
                            <rect id="Rectangle-Copy-15" x="39" y="0" width="1" height="27"></rect>
                            <rect id="Rectangle-Copy-12" x="32" y="0" width="2" height="25"></rect>
                            <rect id="Rectangle-Copy-6" x="18" y="0" width="3" height="25"></rect>
                            <rect id="Rectangle-Copy-26" x="57" y="0" width="1" height="25"></rect>
                            <rect id="Rectangle-Copy-25" x="59" y="0" width="1" height="25"></rect>
                            <rect id="Rectangle-Copy-24" x="61" y="0" width="3" height="25"></rect>
                            <rect id="Rectangle-Copy-23" x="65" y="0" width="1" height="25"></rect>
                            <rect id="Rectangle-Copy-27" x="73" y="0" width="1" height="27"></rect>
                            <rect id="Rectangle-Copy-28" x="75" y="0" width="1" height="27"></rect>
                            <rect id="Rectangle-Copy-21" x="67" y="0" width="3" height="25"></rect>
                        </g>
                    </g>
                </g>
            </g>
        </g>
    </g>
</svg>